<?xml version="1.0" encoding="UTF-8" standalone="no"?>
<!-- Created with Inkscape (http://www.inkscape.org/) -->

<svg
   width="81.34201mm"
   height="37.517731mm"
   viewBox="0 0 81.34201 37.517731"
   version="1.1"
   id="svg1"
   xml:space="preserve"
   xmlns="http://www.w3.org/2000/svg"
   xmlns:svg="http://www.w3.org/2000/svg"><defs
     id="defs1" /><g
     id="layer1"
     transform="translate(-66.998701,-54.300443)"><rect
       style="opacity:0.99;fill:#000000;fill-opacity:0;stroke-width:6.52057;stroke-linecap:round;stroke-linejoin:round;stroke-miterlimit:3.8;paint-order:markers fill stroke"
       id="rect3"
       width="43.77644"
       height="37.517471"
       x="66.998703"
       y="54.300442" /><rect
       style="opacity:0.99;fill:#000000;stroke-width:2.95399;stroke-linecap:round;stroke-linejoin:round;stroke-miterlimit:3.8;paint-order:markers fill stroke"
       id="rect1"
       width="81.319374"
       height="37.517727"
       x="2.0029297e-06"
       y="-1.2580566e-06"
       transform="translate(66.998701,54.300443)" /><path
       style="opacity:0.99;fill:#ff0000;fill-opacity:1;stroke-width:3.27245;stroke-linecap:round;stroke-linejoin:round;stroke-miterlimit:3.8;paint-order:markers fill stroke"
       id="rect4"
       width="12.5"
       height="32.278988"
       x="70.115585"
       y="56.919682"
       ry="0"
       transform="matrix(0.88,0,0,1,8.4138702,0)"
       d="m 76.115585,56.919682 h 0.5 a 6,6 45 0 1 6,6 v 20.278987 a 6,6 135 0 1 -6,6 h -0.5 a 6,6 45 0 1 -6,-6 V 62.919682 a 6,6 135 0 1 6,-6 z" /><path
       style="opacity:0.99;fill:#00ff00;fill-opacity:1;stroke-width:3.06983;stroke-linecap:round;stroke-linejoin:round;stroke-miterlimit:3.8;paint-order:markers fill stroke"
       id="rect4-1"
       width="11"
       height="32.278988"
       x="83.386925"
       y="56.919682"
       d="m 89.386925,56.919682 a 5.5226805,5.5226805 50.194429 0 1 5,6 v 20.278987 a 6,6 135 0 1 -6,6 5.5226805,5.5226805 50.194429 0 1 -5,-6 V 62.919682 a 6,6 135 0 1 6,-6 z" /><path
       style="opacity:0.99;fill:#0000ff;fill-opacity:1;stroke-width:3.06983;stroke-linecap:round;stroke-linejoin:round;stroke-miterlimit:3.8;paint-order:markers fill stroke"
       id="rect4-8"
       width="11"
       height="32.278988"
       x="96.658264"
       y="56.919682"
       d="m 102.65826,56.919682 a 5.5226805,5.5226805 50.194429 0 1 5,6 v 20.278987 a 6,6 135 0 1 -6,6 5.5226805,5.5226805 50.194429 0 1 -4.999996,-6 V 62.919682 a 6,6 135 0 1 5.999996,-6 z" /><rect
       style="opacity:0.99;fill:#000000;fill-opacity:0;stroke-width:6.52057;stroke-linecap:round;stroke-linejoin:round;stroke-miterlimit:3.8;paint-order:markers fill stroke"
       id="rect3-2"
       width="43.77644"
       height="37.517471"
       x="107.65826"
       y="35.541706" /><path
       id="rect4-2"
       style="opacity:0.99;fill:#ff0000;fill-opacity:1;stroke-width:3.27245;stroke-linecap:round;stroke-linejoin:round;stroke-miterlimit:3.8;paint-order:markers fill stroke"
       d="m 70.11559,73.059296 v 10.139432 a 6,6 0 0 0 5.999752,6.000151 h 0.500321 a 6,6 0 0 0 5.999752,-6.000151 V 73.059296 Z"
       transform="matrix(0.88,0,0,1,49.073431,-18.758734)" /><path
       id="rect4-1-6"
       style="opacity:0.99;fill:#00ff00;fill-opacity:1;stroke-width:3.06983;stroke-linecap:round;stroke-linejoin:round;stroke-miterlimit:3.8;paint-order:markers fill stroke"
       d="m 83.387131,73.059296 v 10.139432 a 5.5226805,5.5226805 0 0 0 4.999695,6.000151 6,6 0 0 0 6.00015,-6.000151 V 73.059296 Z"
       transform="translate(40.659561,-18.758734)" /><path
       id="rect4-8-1"
       style="opacity:0.99;fill:#0000ff;fill-opacity:1;stroke-width:3.06983;stroke-linecap:round;stroke-linejoin:round;stroke-miterlimit:3.8;paint-order:markers fill stroke"
       d="m 96.658155,73.059296 v 10.139432 a 5.5226805,5.5226805 0 0 0 5.000215,6.000151 6,6 0 0 0 6.00015,-6.000151 V 73.059296 Z"
       transform="translate(40.659561,-18.758734)" /><rect
       style="opacity:0.99;fill:#000000;fill-opacity:0;stroke-width:6.52057;stroke-linecap:round;stroke-linejoin:round;stroke-miterlimit:3.8;paint-order:markers fill stroke"
       id="rect3-6"
       width="43.77644"
       height="37.517471"
       x="107.65826"
       y="73.059181" /><path
       id="rect4-5"
       style="opacity:0.99;fill:#ff0000;fill-opacity:1;stroke-width:3.27245;stroke-linecap:round;stroke-linejoin:round;stroke-miterlimit:3.8;paint-order:markers fill stroke"
       d="M 76.115342,56.919844 A 6,6 0 0 0 70.11559,62.919478 V 73.059427 H 82.615415 V 62.919478 a 6,6 0 0 0 -5.999752,-5.999634 z"
       transform="matrix(0.88,0,0,1,49.073431,18.758741)" /><path
       id="rect4-1-63"
       style="opacity:0.99;fill:#00ff00;fill-opacity:1;stroke-width:3.06983;stroke-linecap:round;stroke-linejoin:round;stroke-miterlimit:3.8;paint-order:markers fill stroke"
       d="m 89.386765,56.919844 a 6,6 0 0 0 -5.999634,5.999634 V 73.059427 H 94.386976 V 62.919478 a 5.5226805,5.5226805 0 0 0 -5.000211,-5.999634 z"
       transform="translate(40.659561,18.758741)" /><path
       id="rect4-8-9"
       style="opacity:0.99;fill:#0000ff;fill-opacity:1;stroke-width:3.06983;stroke-linecap:round;stroke-linejoin:round;stroke-miterlimit:3.8;paint-order:markers fill stroke"
       d="m 102.65831,56.919844 a 6,6 0 0 0 -6.000155,5.999634 V 73.059427 H 107.65852 V 62.919478 a 5.5226805,5.5226805 0 0 0 -5.00021,-5.999634 z"
       transform="translate(40.659561,18.758741)" /></g></svg>
